<?xml version="1.0" encoding="UTF-8" standalone="no"?>
<!DOCTYPE svg PUBLIC "-//W3C//DTD SVG 1.1//EN" "http://www.w3.org/Graphics/SVG/1.1/DTD/svg11.dtd">
<svg xmlns="http://www.w3.org/2000/svg" version="1.1" viewBox="0.00 0.00 1343.00 1360.00">
<path fill="#000000" d="
  M 1297.08 693.50
  A 612.58 612.58 0.0 0 1 684.50 1306.08
  A 612.58 612.58 0.0 0 1 71.92 693.50
  A 612.58 612.58 0.0 0 1 684.50 80.92
  A 612.58 612.58 0.0 0 1 1297.08 693.50
  Z
  M 1277.08 693.50
  A 592.58 592.58 0.0 0 0 684.50 100.92
  A 592.58 592.58 0.0 0 0 91.92 693.50
  A 592.58 592.58 0.0 0 0 684.50 1286.08
  A 592.58 592.58 0.0 0 0 1277.08 693.50
  Z"
/>
<path fill="#000000" d="
  M 638.91 205.48
  L 643.18 249.38
  Q 643.21 249.72 642.86 249.77
  L 624.00 251.99
  Q 623.47 252.05 623.40 251.52
  L 613.22 179.25
  Q 613.13 178.63 613.75 178.55
  L 631.48 176.39
  Q 632.24 176.30 632.86 176.75
  Q 658.96 195.77 682.12 217.98
  A 0.27 0.26 21.7 0 0 682.57 217.79
  L 682.13 174.03
  Q 682.13 173.43 682.73 173.44
  L 704.77 173.73
  A 0.39 0.39 0.0 0 1 705.15 174.13
  L 702.73 247.44
  A 0.42 0.42 0.0 0 1 702.31 247.84
  L 686.64 247.65
  A 1.39 1.39 0.0 0 1 685.66 247.22
  Q 664.16 224.95 639.17 205.34
  A 0.16 0.16 0.0 0 0 638.91 205.48
  Z"
/>
<path fill="#000000" d="
  M 783.00 247.71
  Q 782.82 248.59 783.39 247.90
  Q 807.10 219.48 834.15 194.46
  Q 834.65 194.00 835.30 194.20
  L 856.16 200.66
  Q 856.71 200.83 856.83 201.39
  Q 866.56 243.66 869.87 284.87
  A 0.21 0.21 0.0 0 1 869.58 285.08
  L 850.67 277.42
  Q 850.14 277.20 850.07 276.63
  L 848.24 260.00
  A 0.56 0.56 0.0 0 0 847.88 259.54
  Q 829.60 252.95 808.65 247.38
  Q 808.24 247.27 807.97 247.59
  L 797.03 260.33
  A 1.00 0.97 26.8 0 1 796.04 260.64
  Q 786.52 258.20 777.15 256.46
  Q 776.31 256.31 775.45 256.14
  Q 747.59 250.68 718.81 248.70
  Q 718.18 248.66 718.23 248.03
  L 723.10 175.24
  Q 723.15 174.61 723.77 174.66
  L 745.99 176.63
  Q 746.54 176.68 746.47 177.23
  L 739.94 235.94
  Q 739.88 236.52 740.45 236.58
  Q 761.12 238.85 783.35 243.35
  A 0.52 0.51 -78.8 0 1 783.75 243.96
  L 783.00 247.71
  Z
  M 818.48 235.84
  A 0.31 0.31 0.0 0 0 818.61 236.35
  L 845.81 244.77
  A 0.31 0.31 0.0 0 0 846.20 244.42
  L 840.75 213.91
  A 0.31 0.31 0.0 0 0 840.22 213.74
  L 818.48 235.84
  Z"
/>
<path fill="#000000" d="
  M 595.49 181.72
  L 608.20 254.09
  A 0.35 0.35 0.0 0 1 607.92 254.50
  L 588.69 258.28
  A 0.35 0.35 0.0 0 1 588.28 258.02
  L 572.41 186.28
  A 0.35 0.35 0.0 0 1 572.68 185.86
  L 595.08 181.44
  A 0.35 0.35 0.0 0 1 595.49 181.72
  Z"
/>
<path fill="#000000" d="
  M 544.89 239.12
  A 0.28 0.28 0.0 0 0 545.28 238.79
  L 532.49 196.74
  A 0.39 0.38 -16.3 0 1 532.76 196.26
  L 554.35 190.23
  A 0.40 0.38 -13.9 0 1 554.83 190.51
  L 573.15 261.70
  Q 573.23 261.98 572.94 262.06
  L 557.59 266.29
  A 1.43 1.41 52.0 0 1 556.52 266.15
  Q 528.93 250.60 499.83 239.26
  A 0.22 0.22 0.0 0 0 499.55 239.54
  L 516.01 280.41
  Q 516.11 280.66 515.87 280.76
  L 497.91 288.44
  A 0.39 0.38 -22.9 0 1 497.40 288.24
  L 467.07 221.53
  A 0.51 0.50 66.4 0 1 467.33 220.86
  L 484.20 213.56
  A 1.72 1.67 42.3 0 1 485.43 213.52
  Q 517.16 224.72 544.89 239.12
  Z"
/>
<path fill="#000000" d="
  M 911.71 255.78
  L 892.16 295.08
  Q 891.97 295.47 891.58 295.28
  L 873.99 287.01
  Q 873.65 286.85 873.80 286.51
  L 903.57 219.43
  A 0.41 0.40 -65.6 0 1 904.11 219.22
  L 920.93 227.05
  Q 921.45 227.29 921.67 227.82
  Q 934.40 258.42 942.75 289.85
  A 0.22 0.22 0.0 0 0 943.15 289.91
  L 966.19 252.38
  A 0.45 0.45 0.0 0 1 966.82 252.24
  L 986.02 264.66
  Q 986.49 264.96 986.17 265.43
  L 945.15 326.01
  A 0.51 0.51 0.0 0 1 944.46 326.15
  L 930.85 317.27
  A 1.33 1.31 -80.4 0 1 930.28 316.45
  Q 923.45 286.23 912.11 255.80
  Q 911.93 255.32 911.71 255.78
  Z"
/>
<path fill="#000000" d="
  M 429.27 291.02
  L 437.68 304.57
  A 0.42 0.41 -32.0 0 0 438.26 304.70
  Q 458.95 291.85 481.13 281.08
  A 0.39 0.39 0.0 0 1 481.65 281.26
  L 487.32 292.98
  A 0.45 0.44 64.6 0 1 487.11 293.58
  Q 456.75 308.29 428.44 327.68
  Q 427.90 328.05 427.53 327.51
  L 386.11 267.15
  A 0.32 0.32 0.0 0 1 386.19 266.71
  Q 417.71 244.99 452.90 227.71
  Q 453.45 227.44 453.73 227.99
  L 459.25 239.28
  Q 459.54 239.87 458.94 240.16
  Q 435.55 251.63 413.68 265.25
  A 0.38 0.38 0.0 0 0 413.56 265.77
  L 421.56 278.64
  A 0.37 0.36 -31.4 0 0 422.07 278.76
  Q 440.93 267.09 460.72 257.05
  Q 461.19 256.81 461.43 257.28
  L 467.05 268.41
  A 0.54 0.54 0.0 0 1 466.81 269.13
  Q 447.98 278.64 429.49 290.06
  Q 428.90 290.43 429.27 291.02
  Z"
/>
<path fill="#000000" d="
  M 1036.52 380.71
  C 1020.77 382.21 1004.38 373.93 992.69 363.70
  Q 976.24 349.29 958.41 336.00
  A 0.48 0.48 0.0 0 1 958.31 335.34
  L 1001.56 276.10
  A 0.30 0.29 -53.7 0 1 1001.98 276.03
  Q 1024.31 292.35 1042.30 308.84
  C 1054.88 320.37 1067.34 340.33 1062.95 358.45
  C 1060.02 370.55 1048.68 379.55 1036.52 380.71
  Z
  M 1000.72 352.03
  C 1011.11 360.89 1027.47 366.73 1038.40 354.90
  C 1049.00 343.43 1041.77 327.87 1031.85 318.43
  Q 1022.70 309.72 1012.58 302.04
  A 0.23 0.23 0.0 0 0 1012.26 302.08
  L 983.90 337.39
  A 0.39 0.38 39.7 0 0 983.96 337.93
  Q 992.09 344.67 1000.72 352.03
  Z"
/>
<path fill="#000000" d="
  M 383.23 313.10
  C 391.86 309.26 401.29 309.91 406.94 317.12
  C 416.22 328.96 405.05 343.77 396.11 351.66
  C 382.12 364.00 369.02 375.76 356.11 389.23
  A 0.42 0.42 0.0 0 1 355.51 389.24
  L 302.45 338.55
  A 0.35 0.35 0.0 0 1 302.44 338.06
  Q 322.17 317.38 342.81 300.00
  C 349.52 294.34 357.94 289.03 366.75 287.37
  C 375.99 285.62 384.29 289.69 385.81 299.25
  Q 386.84 305.67 382.84 312.66
  Q 382.38 313.48 383.23 313.10
  Z
  M 329.31 330.22
  L 340.07 342.20
  A 0.62 0.62 0.0 0 0 340.94 342.25
  L 360.37 324.82
  A 14.58 7.97 -41.9 0 0 365.90 309.15
  L 364.96 308.11
  A 14.58 7.97 -41.9 0 0 348.79 311.91
  L 329.36 329.34
  A 0.62 0.62 0.0 0 0 329.31 330.22
  Z
  M 350.04 351.87
  L 361.19 364.44
  A 0.69 0.69 0.0 0 0 362.17 364.49
  L 383.61 345.46
  A 14.24 8.24 -41.6 0 0 388.79 329.84
  L 387.66 328.57
  A 14.24 8.24 -41.6 0 0 371.54 331.86
  L 350.10 350.90
  A 0.69 0.69 0.0 0 0 350.04 351.87
  Z"
/>
<path fill="#000000" d="
  M 1031.03 693.00
  A 347.03 347.03 0.0 0 1 684.00 1040.03
  A 347.03 347.03 0.0 0 1 336.97 693.00
  A 347.03 347.03 0.0 0 1 684.00 345.97
  A 347.03 347.03 0.0 0 1 1031.03 693.00
  Z
  M 1010.91 693.00
  A 326.91 326.91 0.0 0 0 684.00 366.09
  A 326.91 326.91 0.0 0 0 357.09 693.00
  A 326.91 326.91 0.0 0 0 684.00 1019.91
  A 326.91 326.91 0.0 0 0 1010.91 693.00
  Z"
/>
<path fill="#000000" d="
  M 642.67 638.15
  Q 642.59 638.58 642.14 638.59
  Q 641.62 638.59 641.17 638.83
  Q 637.71 640.67 635.53 643.78
  Q 635.23 644.21 634.79 644.52
  Q 632.36 646.25 630.66 648.69
  Q 629.10 650.96 627.14 653.32
  Q 625.78 654.96 623.94 655.73
  Q 621.50 656.76 619.54 658.40
  C 617.50 660.11 614.89 660.45 612.83 662.25
  C 610.90 663.93 608.56 664.58 606.77 666.37
  C 605.01 668.13 602.64 668.80 600.86 670.57
  C 598.62 672.80 596.36 675.14 593.58 676.71
  Q 591.53 677.87 590.15 680.09
  Q 588.83 682.21 586.56 683.83
  Q 584.97 684.96 583.83 686.46
  Q 578.84 693.05 574.00 698.97
  C 572.46 700.85 571.56 703.17 570.04 704.98
  C 567.48 708.03 566.75 711.42 564.56 714.56
  C 563.07 716.70 562.52 719.17 560.92 721.37
  C 558.97 724.05 559.09 727.13 557.55 729.94
  C 556.60 731.68 555.60 733.51 555.23 735.47
  Q 554.57 738.99 552.64 741.84
  Q 551.72 743.20 551.52 744.80
  Q 550.92 749.54 550.51 753.76
  Q 550.19 757.12 549.32 761.00
  Q 548.77 763.50 548.23 765.99
  Q 547.67 768.55 547.57 771.05
  Q 546.95 785.67 547.83 794.63
  Q 548.10 797.34 548.94 800.23
  C 549.82 803.29 549.53 806.31 549.77 809.43
  Q 549.79 809.77 550.00 810.05
  Q 550.09 810.17 550.18 810.29
  Q 550.31 810.46 550.35 810.67
  C 551.11 814.32 551.32 818.06 553.02 821.41
  C 554.82 824.95 554.89 828.87 556.97 832.26
  Q 558.48 834.74 559.20 838.39
  C 559.66 840.76 561.36 842.39 562.29 844.54
  Q 563.77 847.94 565.92 850.89
  C 567.10 852.51 567.16 854.57 568.45 856.21
  Q 571.76 860.40 574.70 865.02
  Q 576.05 867.14 577.72 869.11
  C 579.76 871.52 582.13 874.01 583.47 876.89
  Q 584.47 879.05 586.55 880.11
  C 589.56 881.63 590.85 884.38 593.43 886.21
  Q 595.69 887.82 598.19 889.49
  A 1.22 1.22 0.0 0 1 597.68 891.71
  C 595.89 891.95 594.20 891.40 592.37 891.56
  Q 586.18 892.08 579.30 891.81
  C 570.25 891.45 561.34 892.04 552.30 891.97
  C 547.53 891.94 542.61 892.12 538.00 891.20
  C 535.34 890.68 533.35 888.94 530.74 888.25
  Q 526.83 887.21 522.72 884.12
  Q 521.38 883.11 520.31 881.73
  C 519.20 880.30 517.72 879.43 516.85 877.76
  Q 515.43 875.02 514.29 872.54
  Q 512.59 868.81 512.00 860.31
  Q 511.98 860.05 511.80 859.85
  Q 511.71 859.75 511.64 859.63
  Q 511.55 859.48 511.55 859.31
  Q 511.58 856.23 511.49 853.21
  Q 511.48 852.72 511.71 852.30
  Q 511.93 851.91 511.97 851.49
  Q 512.56 846.02 512.16 840.60
  Q 512.13 840.18 511.87 839.86
  Q 511.53 839.44 511.53 838.90
  Q 511.49 828.64 511.49 817.56
  Q 511.49 815.52 511.97 813.50
  Q 512.67 810.63 511.96 807.52
  Q 511.54 805.70 511.54 803.89
  Q 511.46 773.02 511.52 745.05
  C 511.53 741.83 512.87 738.74 511.96 735.56
  Q 511.43 733.71 511.47 731.73
  Q 511.58 725.91 511.44 720.06
  A 3.88 3.88 0.0 0 0 509.03 716.56
  C 507.99 716.12 506.63 715.83 505.50 715.82
  Q 472.88 715.78 440.25 715.85
  C 438.74 715.85 436.50 715.61 435.03 714.73
  Q 433.20 713.63 431.43 712.46
  Q 429.63 711.27 428.89 709.29
  Q 427.47 705.50 427.58 703.09
  Q 427.70 700.65 428.70 697.43
  Q 429.37 695.27 431.17 693.40
  Q 436.91 687.47 441.19 683.40
  Q 448.45 676.50 455.48 669.10
  Q 458.90 665.51 462.34 662.62
  C 465.59 659.88 468.12 656.74 471.11 653.78
  Q 478.77 646.20 486.61 638.44
  Q 488.67 636.40 490.62 634.24
  C 492.89 631.72 495.65 629.93 497.80 627.37
  C 500.52 624.15 503.76 621.66 506.62 618.60
  C 508.40 616.70 510.89 614.45 512.03 612.12
  C 513.45 609.22 511.80 604.96 512.98 601.70
  Q 513.50 600.26 513.11 598.70
  Q 512.47 596.20 512.48 593.47
  Q 512.51 567.51 512.41 535.22
  C 512.40 531.32 513.15 527.65 513.05 523.82
  Q 512.97 521.09 514.64 518.90
  Q 517.69 514.88 522.05 515.36
  Q 522.46 515.41 522.72 515.74
  L 522.92 516.00
  Q 523.05 516.17 523.27 516.16
  Q 523.68 516.13 523.96 515.88
  Q 524.35 515.54 524.87 515.50
  Q 528.56 515.16 532.03 515.33
  C 533.63 515.40 535.35 517.17 537.40 515.53
  Q 537.79 515.22 538.29 515.22
  Q 552.33 515.15 567.16 515.19
  Q 570.86 515.21 572.85 516.53
  C 576.67 519.08 579.08 522.97 578.89 527.99
  C 578.71 532.68 578.11 538.37 579.70 542.77
  A 1.06 1.05 -3.9 0 0 580.48 543.44
  Q 581.76 543.70 583.02 543.47
  A 1.35 1.35 0.0 0 0 583.90 542.90
  C 585.08 541.18 586.00 539.07 587.72 537.82
  C 591.05 535.40 593.37 532.04 596.60 529.49
  C 599.32 527.33 600.95 524.26 603.73 522.19
  Q 606.30 520.27 608.26 517.79
  C 610.69 514.71 613.94 512.85 616.40 509.77
  C 618.66 506.95 621.59 504.92 624.11 502.36
  C 639.41 486.83 654.94 471.52 670.49 456.24
  Q 676.38 450.44 680.30 449.43
  A 1.41 1.39 -81.4 0 0 681.17 448.78
  C 683.40 445.03 689.72 445.87 693.30 446.21
  C 695.67 446.44 697.37 448.65 699.54 449.60
  Q 703.65 451.41 706.33 454.34
  C 709.07 457.33 712.18 459.90 714.86 462.86
  C 717.66 465.96 720.89 468.46 723.52 471.62
  C 725.23 473.67 727.51 475.13 729.27 477.13
  C 732.48 480.78 736.14 483.74 739.40 487.33
  C 741.89 490.06 744.80 492.25 747.21 495.14
  Q 749.62 498.05 752.75 500.59
  C 754.59 502.07 755.81 503.97 757.66 505.36
  C 760.85 507.77 762.77 511.05 765.81 513.50
  C 769.08 516.14 771.83 519.57 774.94 522.57
  Q 787.83 535.04 800.69 548.00
  Q 802.17 549.49 803.55 551.10
  C 804.99 552.79 806.71 553.95 808.29 555.50
  Q 823.61 570.51 839.08 585.99
  C 841.88 588.78 845.07 591.27 847.58 594.24
  C 850.03 597.15 852.92 599.30 855.33 602.13
  Q 857.29 604.45 859.58 606.48
  Q 863.85 610.29 868.17 614.58
  Q 887.79 634.05 907.28 653.23
  C 909.03 654.95 910.16 657.07 912.24 658.55
  Q 914.76 660.34 916.85 662.90
  C 918.46 664.89 920.64 666.05 922.32 667.92
  C 930.68 677.18 940.79 685.94 948.62 694.78
  Q 950.67 697.08 950.90 700.34
  C 951.22 704.72 951.33 709.11 947.86 712.07
  Q 943.40 715.89 937.50 715.87
  Q 907.21 715.79 873.25 715.81
  C 870.35 715.82 867.26 716.78 867.32 720.50
  Q 867.44 728.16 867.41 736.49
  Q 867.40 738.07 866.99 739.83
  C 866.27 742.84 867.44 745.72 867.43 748.76
  Q 867.38 774.33 867.39 799.60
  Q 867.40 803.78 866.96 808.18
  Q 866.83 809.57 866.97 810.83
  Q 867.12 812.21 867.16 813.47
  Q 867.59 826.77 867.41 841.58
  Q 867.39 843.82 866.89 845.68
  C 866.34 847.75 867.36 849.99 867.41 852.16
  Q 867.56 858.99 867.14 866.06
  Q 866.95 869.38 864.76 872.05
  Q 863.50 873.60 862.94 875.57
  C 862.25 878.03 860.16 879.53 858.81 881.63
  C 857.08 884.29 852.77 886.41 850.03 887.33
  Q 846.95 888.36 843.93 889.99
  C 840.27 891.96 836.79 891.75 832.76 891.83
  Q 820.80 892.06 809.76 891.80
  C 800.75 891.59 791.86 892.12 782.74 891.51
  Q 782.21 891.47 782.20 890.94
  L 782.17 889.60
  Q 782.16 889.10 782.54 888.77
  Q 787.29 884.69 792.15 880.73
  C 794.19 879.07 794.83 877.12 796.47 875.28
  Q 801.13 870.05 803.91 865.26
  Q 805.53 862.49 807.72 860.15
  C 808.83 858.96 809.17 857.18 810.10 855.89
  C 812.10 853.12 813.04 850.08 815.16 847.40
  C 817.04 845.02 817.24 842.12 818.71 839.51
  Q 820.20 836.85 821.02 833.75
  C 821.84 830.63 824.10 828.43 824.75 825.26
  Q 825.77 820.28 827.06 815.35
  Q 827.38 814.10 828.06 812.92
  Q 828.54 812.10 828.90 811.20
  Q 829.20 810.47 829.14 809.62
  Q 828.64 802.47 830.55 795.61
  Q 831.32 792.83 831.44 790.60
  Q 831.57 788.21 831.52 785.85
  Q 831.52 785.62 831.65 785.43
  Q 831.74 785.31 831.84 785.20
  Q 832.00 785.04 832.01 784.83
  Q 832.22 780.68 831.74 774.47
  Q 831.47 770.85 830.75 768.64
  Q 830.46 767.73 830.29 766.82
  Q 829.06 760.26 828.48 753.79
  Q 828.27 751.50 827.53 749.31
  Q 826.70 746.84 826.52 744.66
  Q 826.35 742.49 825.53 740.32
  C 824.81 738.41 824.44 736.29 823.33 734.57
  Q 821.63 731.93 820.85 729.05
  C 819.87 725.47 817.87 722.69 816.87 719.12
  C 816.23 716.81 814.05 715.27 813.03 712.88
  Q 810.68 707.35 807.69 703.14
  Q 804.01 697.95 800.00 693.06
  C 799.06 691.91 797.93 691.00 797.12 689.76
  C 794.71 686.13 791.47 683.69 788.52 680.46
  C 787.08 678.88 785.91 677.37 784.15 676.13
  C 780.25 673.38 777.26 669.82 773.21 667.14
  Q 769.23 664.51 765.04 661.61
  Q 763.26 660.37 761.31 659.58
  C 759.51 658.85 758.15 657.55 756.41 656.65
  Q 753.12 654.95 750.02 652.94
  Q 748.91 652.23 744.50 651.27
  Q 743.63 651.08 741.40 649.72
  C 738.88 648.18 736.12 647.87 733.55 646.56
  C 729.74 644.62 725.38 644.07 721.20 643.67
  Q 718.18 643.39 714.57 642.26
  Q 710.01 640.84 707.90 640.63
  Q 688.10 638.71 668.42 640.80
  Q 667.85 640.86 667.45 641.23
  A 1.14 1.11 28.3 0 1 666.51 641.50
  Q 665.92 641.40 665.62 641.91
  A 1.03 1.02 -85.3 0 1 665.11 642.35
  Q 662.86 643.25 661.11 642.47
  Q 657.75 640.97 654.92 638.02
  A 1.24 1.24 0.0 0 0 653.85 637.65
  Q 652.81 637.81 652.07 637.17
  A 1.34 1.30 -23.0 0 0 651.22 636.84
  L 645.76 636.74
  Q 645.20 636.73 644.84 637.17
  Q 644.26 637.85 643.34 637.68
  Q 642.76 637.57 642.67 638.15
  Z
  M 847.07 827.44
  Q 846.85 826.63 846.27 826.75
  A 0.65 0.65 0.0 0 0 845.89 827.79
  Q 846.16 828.13 846.56 828.13
  Q 847.26 828.12 847.07 827.44
  Z"
/>
<path fill="#000000" d="
  M 613.99 746.76
  C 612.46 746.69 610.23 745.29 610.12 743.44
  Q 610.09 743.03 609.85 742.70
  A 1.60 1.53 -63.5 0 1 609.57 741.80
  Q 609.62 733.50 609.68 725.22
  Q 609.69 723.05 610.57 720.88
  Q 611.95 717.45 613.18 713.88
  Q 614.62 709.67 618.82 705.94
  C 620.99 704.01 622.28 701.57 625.49 701.28
  A 2.29 2.17 -63.0 0 0 626.53 700.91
  Q 631.19 697.79 636.38 697.78
  Q 688.96 697.65 742.72 697.81
  C 745.30 697.81 748.02 698.22 750.31 699.59
  Q 753.05 701.24 756.57 702.50
  A 1.93 1.85 78.7 0 1 757.37 703.06
  Q 759.11 705.11 761.04 706.87
  C 762.83 708.50 763.47 710.50 765.13 712.13
  C 766.65 713.63 767.42 715.96 767.53 718.05
  Q 768.05 727.68 767.85 742.95
  C 767.83 744.90 766.44 746.10 764.62 746.58
  Q 761.21 747.48 758.09 748.23
  C 755.50 748.86 754.53 751.17 752.08 751.92
  C 748.26 753.10 745.41 755.90 743.15 759.11
  C 742.12 760.57 739.99 761.25 739.39 762.89
  Q 738.35 765.79 736.85 768.42
  Q 735.55 770.70 735.29 773.27
  Q 734.53 780.51 734.87 788.79
  C 734.94 790.45 734.04 792.46 732.07 792.29
  Q 723.11 791.53 713.13 791.93
  C 710.18 792.05 707.18 791.42 704.22 791.55
  Q 692.17 792.07 678.99 791.72
  C 670.35 791.50 661.79 792.00 653.12 791.74
  C 650.64 791.67 646.69 793.89 645.22 790.67
  Q 644.73 789.61 644.83 788.29
  Q 645.30 781.92 644.53 776.08
  C 644.17 773.38 641.99 771.34 641.26 768.65
  Q 640.25 764.91 639.21 763.35
  Q 636.22 758.87 630.91 754.20
  C 628.58 752.15 625.75 752.31 623.47 750.08
  C 621.35 747.98 617.76 747.59 614.97 747.25
  Q 614.66 747.21 614.44 746.97
  A 0.64 0.64 0.0 0 0 613.99 746.76
  Z"
/>
<path fill="#000000" d="
  M 747.45 803.81
  Q 748.99 801.33 748.95 798.13
  Q 748.81 787.37 749.05 777.17
  C 749.09 775.19 749.81 773.39 751.01 771.83
  C 753.84 768.17 756.83 764.15 761.60 762.89
  C 765.66 761.82 772.92 761.12 777.06 763.16
  Q 779.55 764.39 781.69 765.84
  Q 784.79 767.94 786.53 771.84
  Q 788.47 776.21 789.54 780.68
  Q 790.26 783.72 790.22 789.72
  Q 790.03 816.31 790.00 842.65
  A 4.15 4.14 61.6 0 1 789.33 844.91
  Q 787.92 847.09 787.21 849.40
  C 786.08 853.15 783.44 855.65 780.79 858.33
  Q 778.92 860.21 776.51 860.53
  Q 774.55 860.79 772.67 861.64
  Q 769.86 862.91 767.04 863.64
  C 764.38 864.34 763.56 867.12 763.67 869.56
  Q 763.95 875.49 763.54 879.99
  Q 763.00 886.03 756.84 884.47
  C 753.94 883.74 752.96 881.07 752.98 878.40
  Q 753.04 872.68 752.98 867.34
  C 752.95 863.76 750.30 862.76 747.01 862.83
  Q 731.59 863.13 714.25 862.73
  Q 705.31 862.52 694.27 862.77
  Q 683.17 863.01 672.25 862.62
  Q 668.74 862.50 665.24 862.64
  Q 661.67 862.80 658.11 862.82
  Q 644.25 862.91 631.17 862.86
  A 4.33 4.33 0.0 0 0 626.82 867.20
  Q 626.83 871.16 627.05 875.44
  C 627.28 879.86 626.42 883.73 621.33 884.72
  C 617.94 885.38 615.52 882.50 615.38 879.42
  Q 615.15 874.55 615.32 869.51
  Q 615.39 867.41 614.40 865.67
  C 612.42 862.17 608.28 863.01 605.03 861.61
  Q 602.72 860.62 600.49 859.83
  C 597.93 858.92 593.73 854.46 592.71 851.95
  C 591.35 848.58 589.05 845.63 589.06 841.81
  Q 589.08 816.72 589.07 790.66
  C 589.07 786.42 589.50 782.14 589.81 777.91
  A 5.76 5.54 61.5 0 1 590.41 775.73
  L 594.42 767.86
  Q 594.66 767.39 595.09 767.11
  C 597.80 765.33 600.60 763.18 603.76 762.53
  C 614.11 760.41 624.20 763.46 628.31 773.87
  Q 630.07 778.31 629.86 784.92
  Q 629.61 792.94 629.97 799.73
  Q 630.27 805.55 636.07 805.32
  Q 646.86 804.89 656.09 805.57
  C 658.98 805.79 662.03 805.26 664.81 805.25
  Q 687.48 805.17 710.12 805.13
  C 713.34 805.13 716.50 805.71 719.59 805.54
  Q 730.10 804.98 741.28 805.25
  Q 744.21 805.32 746.74 804.39
  Q 747.19 804.23 747.45 803.81
  Z"
/>
<path fill="#000000" d="
  M 1068.91 973.71
  L 1073.84 986.79
  A 0.98 0.97 -35.5 0 1 1073.68 987.74
  L 1061.26 1002.66
  A 0.33 0.33 0.0 0 1 1060.69 1002.54
  Q 1051.19 969.80 1037.74 938.00
  Q 1037.50 937.43 1037.86 936.92
  L 1047.61 923.32
  Q 1047.92 922.88 1048.45 922.92
  Q 1083.16 925.32 1117.58 922.94
  A 0.33 0.33 0.0 0 1 1117.89 923.45
  L 1107.02 941.19
  Q 1106.78 941.59 1106.30 941.58
  L 1092.43 941.21
  Q 1091.79 941.19 1091.44 941.72
  Q 1080.88 957.70 1069.02 973.03
  Q 1068.77 973.34 1068.91 973.71
  Z
  M 1064.10 961.51
  A 0.33 0.33 0.0 0 0 1064.67 961.57
  L 1079.36 941.13
  A 0.33 0.33 0.0 0 0 1079.12 940.61
  L 1054.53 938.44
  A 0.33 0.33 0.0 0 0 1054.20 938.90
  L 1064.10 961.51
  Z"
/>
<path fill="#000000" d="
  M 295.47 953.51
  C 287.69 944.04 274.25 936.61 263.64 945.86
  C 258.21 950.59 257.50 958.57 259.56 965.24
  C 263.09 976.73 272.46 987.09 284.64 989.50
  Q 285.22 989.62 285.30 990.20
  L 287.40 1003.98
  Q 287.51 1004.68 286.80 1004.55
  Q 282.55 1003.70 278.95 1002.28
  C 259.55 994.61 240.50 967.50 243.40 945.99
  C 245.76 928.55 260.66 921.00 276.83 925.77
  C 291.69 930.15 303.94 943.06 311.44 956.52
  Q 316.85 966.21 317.30 976.97
  A 0.43 0.43 0.0 0 1 316.77 977.40
  L 303.84 974.18
  Q 303.26 974.03 303.25 973.44
  Q 303.02 962.70 295.47 953.51
  Z"
/>
<path fill="#000000" d="
  M 1007.76 1025.89
  Q 1012.82 1027.87 1018.65 1026.30
  C 1030.90 1022.99 1041.56 1010.90 1042.22 997.79
  Q 1042.25 997.25 1042.77 997.10
  L 1056.08 993.35
  Q 1056.76 993.16 1056.72 993.86
  C 1055.58 1014.78 1036.60 1035.64 1016.81 1041.41
  C 1010.13 1043.36 1001.38 1043.35 995.34 1040.06
  C 979.61 1031.47 978.53 1013.47 986.02 998.55
  C 993.35 983.96 1008.57 969.74 1025.52 966.95
  Q 1026.18 966.84 1026.10 967.50
  L 1024.64 980.61
  Q 1024.57 981.24 1023.95 981.32
  C 1012.88 982.87 1003.64 990.90 999.19 1000.79
  C 994.81 1010.54 997.44 1021.84 1007.76 1025.89
  Z"
/>
<path fill="#000000" d="
  M 341.27 989.43
  L 300.11 1031.31
  A 0.33 0.33 0.0 0 1 299.63 1031.31
  L 286.20 1017.43
  A 0.33 0.33 0.0 0 1 286.21 1016.96
  L 328.94 976.68
  A 0.33 0.33 0.0 0 1 329.41 976.69
  L 341.28 988.97
  A 0.33 0.33 0.0 0 1 341.27 989.43
  Z"
/>
<path fill="#000000" d="
  M 330.72 1043.65
  L 317.91 1047.88
  A 1.01 1.00 57.4 0 1 316.90 1047.65
  L 303.07 1034.65
  A 0.34 0.34 0.0 0 1 303.22 1034.07
  Q 336.72 1026.05 368.02 1014.12
  A 0.93 0.92 -35.8 0 1 368.95 1014.27
  L 381.29 1024.30
  A 1.03 1.02 -66.0 0 1 381.65 1025.25
  Q 376.59 1058.10 375.35 1092.68
  Q 375.32 1093.39 374.75 1092.98
  L 359.32 1082.17
  Q 358.84 1081.83 358.90 1081.24
  L 360.48 1067.79
  Q 360.54 1067.21 360.09 1066.86
  Q 344.43 1054.98 331.89 1043.89
  Q 331.37 1043.44 330.72 1043.65
  Z
  M 343.14 1039.31
  A 0.31 0.31 0.0 0 0 343.06 1039.84
  L 361.66 1054.95
  A 0.31 0.31 0.0 0 0 362.16 1054.77
  L 366.28 1030.70
  A 0.31 0.31 0.0 0 0 365.86 1030.36
  L 343.14 1039.31
  Z"
/>
<path fill="#000000" d="
  M 962.30 1017.25
  L 999.56 1062.51
  A 0.42 0.42 0.0 0 1 999.50 1063.11
  L 985.04 1074.62
  A 0.42 0.42 0.0 0 1 984.44 1074.55
  L 948.86 1027.95
  A 0.42 0.42 0.0 0 1 948.93 1027.36
  L 961.72 1017.19
  A 0.42 0.42 0.0 0 1 962.30 1017.25
  Z"
/>
<path fill="#000000" d="
  M 925.11 1095.84
  L 932.94 1109.07
  A 0.55 0.54 60.2 0 1 932.74 1109.82
  L 917.05 1118.65
  A 0.42 0.41 -29.0 0 1 916.48 1118.49
  L 888.52 1066.97
  A 0.43 0.42 61.3 0 1 888.68 1066.40
  Q 902.99 1058.47 917.55 1049.47
  C 927.16 1043.51 940.86 1039.23 950.48 1046.71
  C 959.83 1053.98 959.10 1065.81 952.30 1074.44
  A 0.43 0.42 -65.5 0 0 952.55 1075.12
  L 977.20 1080.09
  A 0.20 0.20 0.0 0 1 977.27 1080.45
  L 961.55 1091.58
  A 1.63 1.62 -55.7 0 1 960.24 1091.83
  L 939.41 1086.81
  Q 938.75 1086.65 938.17 1087.00
  L 925.36 1094.84
  Q 924.75 1095.22 925.11 1095.84
  Z
  M 908.76 1068.46
  L 919.08 1085.29
  A 0.37 0.37 0.0 0 0 919.59 1085.41
  L 933.29 1077.02
  A 13.82 9.48 -31.5 0 0 940.12 1061.71
  L 939.32 1060.42
  A 13.82 9.48 -31.5 0 0 922.59 1059.55
  L 908.88 1067.95
  A 0.37 0.37 0.0 0 0 908.76 1068.46
  Z"
/>
<path fill="#000000" d="
  M 431.42 1110.42
  L 438.86 1096.13
  A 0.62 0.61 -63.0 0 1 439.68 1095.86
  L 453.04 1102.53
  Q 453.65 1102.83 453.36 1103.46
  L 443.51 1124.00
  Q 443.26 1124.52 442.68 1124.55
  C 419.62 1125.79 387.21 1107.66 385.61 1082.63
  Q 385.18 1075.99 388.09 1070.29
  C 396.71 1053.38 417.20 1052.57 433.29 1059.12
  C 445.88 1064.24 458.01 1072.95 463.17 1085.52
  A 0.31 0.31 0.0 0 1 462.94 1085.95
  L 450.52 1088.31
  Q 449.87 1088.44 449.60 1087.83
  Q 445.46 1078.68 436.23 1073.51
  C 426.48 1068.04 412.50 1066.04 405.39 1076.85
  Q 401.81 1082.29 402.85 1088.37
  C 404.99 1100.98 418.36 1108.97 430.30 1110.98
  Q 431.07 1111.10 431.42 1110.42
  Z"
/>
<path fill="#000000" d="
  M 859.32 1110.05
  Q 874.25 1103.77 889.90 1095.85
  A 0.42 0.41 -26.2 0 1 890.45 1096.03
  L 895.04 1105.03
  Q 895.32 1105.57 894.78 1105.85
  Q 879.14 1113.76 863.51 1120.30
  A 0.56 0.55 -23.1 0 0 863.21 1121.03
  L 871.29 1140.08
  A 0.45 0.44 67.4 0 1 871.05 1140.67
  L 854.33 1147.34
  A 0.31 0.31 0.0 0 1 853.93 1147.16
  L 832.91 1092.29
  A 0.40 0.40 0.0 0 1 833.15 1091.77
  Q 858.02 1082.34 881.66 1070.07
  A 0.42 0.42 0.0 0 1 882.22 1070.25
  L 886.96 1079.28
  A 0.49 0.48 62.9 0 1 886.75 1079.94
  Q 870.31 1088.48 852.88 1095.81
  A 0.35 0.34 -24.0 0 0 852.70 1096.26
  L 858.38 1109.67
  Q 858.66 1110.32 859.32 1110.05
  Z"
/>
<path fill="#000000" d="
  M 507.98 1137.62
  Q 512.93 1148.72 518.52 1159.87
  A 0.26 0.26 0.0 0 1 518.21 1160.24
  L 499.96 1154.53
  A 0.95 0.93 -2.7 0 1 499.38 1154.01
  L 490.81 1134.14
  Q 490.60 1133.64 490.09 1133.44
  L 475.96 1127.99
  Q 475.45 1127.79 475.25 1128.29
  L 469.32 1142.90
  A 0.33 0.32 22.1 0 1 468.90 1143.07
  L 452.30 1136.00
  Q 451.83 1135.80 452.04 1135.34
  L 476.06 1081.97
  A 0.41 0.40 -65.4 0 1 476.59 1081.77
  Q 491.62 1088.36 506.94 1094.10
  C 518.92 1098.60 532.66 1109.02 528.04 1123.75
  C 525.34 1132.36 517.92 1136.86 508.44 1136.91
  Q 507.67 1136.91 507.98 1137.62
  Z
  M 487.10 1098.73
  L 479.90 1117.41
  A 0.23 0.23 0.0 0 0 480.03 1117.71
  L 495.05 1123.50
  A 13.51 9.58 21.1 0 0 511.10 1119.43
  L 511.58 1118.20
  A 13.51 9.58 21.1 0 0 502.42 1104.39
  L 487.40 1098.60
  A 0.23 0.23 0.0 0 0 487.10 1098.73
  Z"
/>
<path fill="#000000" d="
  M 786.64 1155.32
  L 782.99 1168.25
  Q 782.85 1168.76 782.33 1168.86
  L 764.62 1172.47
  A 0.24 0.24 0.0 0 1 764.34 1172.15
  Q 775.73 1141.28 783.67 1108.07
  A 1.09 1.08 89.1 0 1 784.44 1107.27
  L 798.99 1103.27
  Q 799.52 1103.12 799.92 1103.51
  Q 823.71 1127.42 850.07 1148.26
  Q 850.65 1148.72 849.95 1148.97
  L 832.73 1154.99
  Q 832.16 1155.19 831.72 1154.78
  L 821.87 1145.57
  Q 821.45 1145.18 820.90 1145.35
  Q 804.79 1150.42 787.42 1154.57
  Q 786.81 1154.71 786.64 1155.32
  Z
  M 789.95 1142.82
  A 0.31 0.31 0.0 0 0 790.34 1143.19
  L 812.39 1137.08
  A 0.31 0.31 0.0 0 0 812.53 1136.56
  L 795.82 1119.12
  A 0.31 0.31 0.0 0 0 795.29 1119.26
  L 789.95 1142.82
  Z"
/>
<path fill="#000000" d="
  M 594.59 1169.90
  C 581.16 1176.01 563.95 1174.24 550.53 1168.00
  C 534.65 1160.61 523.02 1144.09 532.80 1126.74
  C 539.56 1114.76 555.31 1110.37 568.52 1111.29
  C 582.40 1112.26 596.70 1117.61 605.22 1128.67
  C 616.51 1143.34 611.38 1162.27 594.59 1169.90
  Z
  M 593.5235 1146.9202
  A 23.64 19.14 10.9 0 0 573.9293 1123.6553
  A 23.64 19.14 10.9 0 0 547.0965 1137.9798
  A 23.64 19.14 10.9 0 0 566.6907 1161.2447
  A 23.64 19.14 10.9 0 0 593.5235 1146.9202
  Z"
/>
<path fill="#000000" d="
  M 718.65 1163.22
  L 720.20 1178.43
  A 0.41 0.41 0.0 0 1 719.82 1178.88
  L 702.18 1180.34
  Q 701.73 1180.38 701.70 1179.93
  L 697.78 1121.51
  A 0.36 0.36 0.0 0 1 698.11 1121.13
  Q 714.50 1119.88 730.86 1117.89
  C 743.01 1116.41 759.18 1119.27 762.49 1133.50
  C 766.36 1150.11 749.27 1158.49 736.08 1160.41
  Q 726.99 1161.74 719.31 1162.42
  Q 718.57 1162.48 718.65 1163.22
  Z
  M 715.23 1131.36
  L 717.49 1150.91
  A 0.40 0.40 0.0 0 0 717.93 1151.26
  L 733.57 1149.46
  A 13.42 9.58 -6.6 0 0 745.80 1138.40
  L 745.65 1137.09
  A 13.42 9.58 -6.6 0 0 731.21 1129.11
  L 715.58 1130.92
  A 0.40 0.40 0.0 0 0 715.23 1131.36
  Z"
/>
<path fill="#000000" d="
  M 644.07 1168.88
  C 651.29 1172.03 664.17 1171.58 668.18 1163.32
  Q 669.89 1159.81 669.82 1153.34
  Q 669.66 1137.93 669.60 1122.71
  Q 669.59 1122.14 670.17 1122.13
  L 685.05 1121.81
  Q 685.65 1121.80 685.67 1122.40
  Q 686.52 1141.22 686.95 1155.77
  C 687.75 1182.53 655.94 1185.55 637.53 1180.01
  C 625.08 1176.26 617.42 1167.06 618.70 1153.30
  Q 620.24 1136.79 621.86 1120.49
  Q 621.91 1120.00 622.40 1120.04
  L 637.78 1121.26
  Q 638.35 1121.30 638.31 1121.87
  Q 637.28 1138.17 636.31 1154.68
  Q 635.70 1165.22 644.07 1168.88
  Z"
/>
</svg>
